<svg width="16" height="16" viewBox="0 0 16 16" fill="none" xmlns="http://www.w3.org/2000/svg">
<path d="M13.5262 2.30209C12.0369 0.818302 10.056 0.000785695 7.94811 0C3.60211 0 0.0648631 3.5207 0.0628906 7.8487C0.062496 9.17142 0.397836 10.4749 1.0338 11.6287L0.0139705 15.3368C-0.0231142 15.4723 0.0147595 15.6169 0.114178 15.7167C0.189136 15.7921 0.290527 15.8333 0.39468 15.8333C0.428214 15.8333 0.461748 15.829 0.494887 15.8204L4.31658 14.8225C5.43227 15.3992 6.68289 15.7037 7.94496 15.7041C12.2941 15.7041 15.8314 12.183 15.8333 7.85499C15.8341 5.75758 15.0147 3.78548 13.5262 2.30209Z" fill="white"/>
<path d="M12.8324 3.00329C11.5199 1.6899 9.77524 0.966261 7.91829 0.96582C4.08458 0.96582 0.966606 4.08237 0.964844 7.91331C0.964404 9.22626 1.33174 10.5044 2.02766 11.6112L2.19327 11.8742L1.49075 14.438L4.12157 13.7483L4.37572 13.8989C5.44249 14.5322 6.66608 14.867 7.91344 14.8674H7.91608C11.7471 14.8674 14.8651 11.7504 14.8664 7.91904C14.8669 6.06259 14.145 4.31668 12.8324 3.00329Z" fill="url(#paint0_linear_1_347)"/>
<path opacity="0.05" d="M9.76956 11.6577C9.39272 11.6577 8.87803 11.5615 7.84296 11.1536C6.68405 10.6961 5.54559 9.70305 4.63739 8.35704L4.60823 8.31425C4.36509 7.98967 3.80078 7.13753 3.80078 6.23123C3.80078 5.25411 4.28858 4.73412 4.49689 4.5118L4.52908 4.47734C4.81653 4.16261 5.15512 4.12891 5.28729 4.12891C5.42705 4.13042 5.54559 4.12891 5.64822 4.13345C5.89591 4.1433 6.17807 4.21488 6.38144 4.66708C6.47613 4.87841 6.63746 5.27494 6.76358 5.58588C6.84425 5.78547 6.90977 5.94757 6.92984 5.99074C7.04119 6.21268 7.04649 6.43272 6.94348 6.63988L6.91886 6.69025C6.87038 6.78948 6.82001 6.89212 6.71283 7.0171L6.62383 7.1239C6.56248 7.19851 6.50074 7.27274 6.44583 7.33031C6.59315 7.57307 6.90258 8.03323 7.32865 8.41347C7.8566 8.88348 8.3088 9.08004 8.55156 9.1857C8.59966 9.20653 8.63981 9.22433 8.67162 9.23948C8.82501 9.06148 9.07762 8.75812 9.16473 8.62821C9.45635 8.1904 9.8756 8.34227 10.0131 8.39264C10.2286 8.47066 11.2716 8.98952 11.2818 8.99444L11.3784 9.04178C11.5371 9.11867 11.6863 9.191 11.7806 9.3478C11.9302 9.59814 11.8473 10.1329 11.7075 10.5238C11.5053 11.093 10.6365 11.5861 10.1721 11.6277L10.0866 11.6368C9.98619 11.6486 9.88431 11.6577 9.76956 11.6577ZM5.34713 4.88637C5.29411 4.88637 5.20132 4.8644 5.08733 4.98862L5.04907 5.0299C4.87751 5.21283 4.55786 5.55369 4.55786 6.23123C4.55786 6.92923 5.06006 7.65412 5.21382 7.85977C5.22405 7.8734 5.24071 7.89802 5.26495 7.93324C6.08869 9.15389 7.10292 10.0473 8.12095 10.4488C9.40257 10.9544 9.73168 10.9161 9.99793 10.8847L10.1032 10.8733C10.3339 10.8525 10.9069 10.5131 10.9936 10.2696C11.0728 10.0481 11.0981 9.85795 11.1023 9.74925C11.0856 9.7413 11.0675 9.73297 11.0481 9.72388L10.941 9.67123C10.6997 9.55004 9.88848 9.15389 9.75517 9.10503C9.58777 9.3353 9.27721 9.69774 9.19502 9.79205C9.04088 9.96891 8.7682 10.1363 8.35084 9.92612C8.32584 9.91362 8.29176 9.89923 8.24934 9.88067C7.98764 9.76667 7.44264 9.52997 6.82418 8.97929C6.26782 8.48278 5.8872 7.87946 5.74934 7.64276C5.58081 7.35454 5.62739 7.07656 5.88796 6.81713C5.93341 6.77168 5.98529 6.70692 6.03831 6.64291L6.13754 6.52399C6.18223 6.47211 6.19852 6.4384 6.23866 6.35697L6.25192 6.33008C6.21707 6.25282 6.14663 6.0805 6.0618 5.87068C5.93947 5.56884 5.78305 5.18329 5.69102 4.97802C5.6664 4.92348 5.64784 4.89659 5.63876 4.88523C5.64065 4.89091 5.62777 4.89129 5.61679 4.89053C5.53271 4.88636 5.44068 4.88637 5.34713 4.88637Z" fill="black"/>
<path opacity="0.07" d="M9.76837 11.4708C9.44797 11.4708 8.95221 11.3875 7.91298 10.9777C6.78929 10.5346 5.68188 9.56614 4.7949 8.25157L4.76195 8.2031C4.52865 7.89178 3.99048 7.0813 3.99048 6.23143C3.99048 5.3293 4.4423 4.84755 4.63545 4.64153L4.66916 4.60517C4.90587 4.34649 5.18083 4.31885 5.28801 4.31885C5.43079 4.31998 5.54062 4.31885 5.6406 4.32339C5.82694 4.33097 6.04092 4.37036 6.20945 4.7453C6.30376 4.95511 6.46358 5.34899 6.58856 5.65766C6.67378 5.86785 6.74195 6.03714 6.75975 6.07312C6.7908 6.13561 6.88776 6.32839 6.77452 6.556L6.74914 6.60751C6.7018 6.70409 6.6609 6.78779 6.56925 6.89459L6.4776 7.00404C6.41207 7.08357 6.34655 7.16273 6.28975 7.21954C6.20794 7.30096 6.20794 7.30096 6.24051 7.35664C6.36473 7.56986 6.7071 8.11334 7.20286 8.55532C7.75316 9.04577 8.22392 9.24991 8.47653 9.35974C8.53107 9.38322 8.57462 9.40253 8.60681 9.41882C8.71778 9.47411 8.72914 9.46275 8.76853 9.41806C8.8776 9.29384 9.21089 8.90147 9.32261 8.7337C9.53243 8.41935 9.80322 8.51782 9.94903 8.57046C10.1407 8.64015 11.1 9.1147 11.1973 9.16355L11.2965 9.21203C11.4405 9.28172 11.5541 9.33663 11.6192 9.44457C11.7154 9.60591 11.6757 10.0517 11.5302 10.4599C11.3454 10.9792 10.5281 11.4056 10.1562 11.439L10.0657 11.4488C9.97743 11.4594 9.88464 11.4708 9.76837 11.4708ZM5.34179 4.69758C5.33194 4.69758 5.32209 4.69758 5.31224 4.69758C5.24294 4.69758 5.0869 4.70932 4.94791 4.86119L4.91117 4.90058C4.73506 5.08843 4.36883 5.47927 4.36883 6.23143C4.36883 6.9673 4.85398 7.69484 5.06266 7.97359C5.07213 7.98608 5.0869 8.00767 5.10849 8.03949C5.95343 9.29157 6.99873 10.2096 8.05197 10.6255C9.37942 11.1489 9.73543 11.1068 10.0202 11.0735L10.1214 11.0625C10.3838 11.039 11.0496 10.6789 11.1727 10.3335C11.2988 9.98047 11.3041 9.68582 11.2848 9.62257C11.2875 9.62485 11.1969 9.58546 11.1314 9.55365L11.0269 9.50214C10.7909 9.3836 9.96418 8.97911 9.8195 8.92647C9.68316 8.87724 9.68278 8.8761 9.63771 8.94389C9.50554 9.14121 9.13779 9.57145 9.05371 9.66726C8.81057 9.94563 8.52955 9.80323 8.43676 9.75665C8.40949 9.74301 8.372 9.7271 8.32579 9.70703C8.0728 9.59682 7.54675 9.36807 6.95101 8.83747C6.41473 8.35951 6.04698 7.77589 5.91367 7.54714C5.73339 7.23885 5.93601 7.03699 6.02236 6.95102C6.0716 6.90178 6.12841 6.83247 6.18559 6.76279L6.28217 6.6469C6.34239 6.57645 6.36776 6.52495 6.40942 6.43973L6.43593 6.38557C6.45449 6.34846 6.4579 6.31399 6.42078 6.24052C6.40109 6.20113 6.328 6.02162 6.23786 5.79854C6.11439 5.49442 5.95722 5.10585 5.86405 4.89944C5.77732 4.70667 5.72657 4.70439 5.6247 4.70061C5.53721 4.69758 5.44025 4.69758 5.34179 4.69758Z" fill="black"/>
<path fill-rule="evenodd" clip-rule="evenodd" d="M6.0366 4.82254C5.90215 4.52335 5.7605 4.51729 5.63211 4.51199C5.52721 4.50744 5.40753 4.50782 5.28785 4.50782C5.16817 4.50782 4.9735 4.55289 4.80876 4.73279C4.64401 4.91268 4.17969 5.34708 4.17969 6.23104C4.17969 7.11499 4.82353 7.96941 4.91329 8.08909C5.00305 8.20876 6.15628 10.0808 7.98251 10.8012C9.50008 11.3996 9.80912 11.2806 10.1386 11.2507C10.4681 11.2208 11.2017 10.8163 11.3513 10.3967C11.5009 9.97705 11.5009 9.61764 11.4562 9.54265C11.4111 9.46766 11.2915 9.42297 11.112 9.33283C10.9324 9.2427 10.0489 8.80829 9.88411 8.74845C9.71936 8.68861 9.59968 8.65869 9.47963 8.83859C9.35995 9.01811 9.01568 9.42297 8.91078 9.54265C8.80587 9.66271 8.70096 9.67786 8.52144 9.58772C8.34192 9.49758 7.76323 9.30822 7.07659 8.69619C6.54258 8.22013 6.18203 7.63196 6.07712 7.45206C5.97221 7.27255 6.06576 7.17521 6.1559 7.08545C6.23657 7.00478 6.33542 6.87564 6.42555 6.77073C6.51531 6.66582 6.54523 6.59083 6.60507 6.47115C6.66491 6.3511 6.63499 6.24619 6.58992 6.15643C6.54561 6.06629 6.19642 5.17779 6.0366 4.82254Z" fill="white"/>
<defs>
<linearGradient id="paint0_linear_1_347" x1="4.25151" y1="2.07573" x2="10.1859" y2="14.6456" gradientUnits="userSpaceOnUse">
<stop stop-color="#63D46D"/>
<stop offset="1" stop-color="#21B238"/>
</linearGradient>
</defs>
</svg>
