<svg width="202" height="62" viewBox="0 0 202 62" fill="none" xmlns="http://www.w3.org/2000/svg">
<path d="M73.8 31V13.96H80.208C81.6 13.96 82.792 14.456 83.784 15.448C84.776 16.424 85.272 17.616 85.272 19.024C85.272 20.16 84.864 21.136 84.048 21.952C84.784 22.336 85.368 22.88 85.8 23.584C86.248 24.288 86.472 25.088 86.472 25.984C86.472 27.392 85.976 28.584 84.984 29.56C83.992 30.52 82.76 31 81.288 31H73.8ZM77.616 27.496H80.976C81.488 27.496 81.912 27.336 82.248 27.016C82.584 26.68 82.752 26.272 82.752 25.792C82.752 25.312 82.576 24.912 82.224 24.592C81.888 24.256 81.464 24.088 80.952 24.088H77.616V27.496ZM77.616 20.848H79.776C80.288 20.848 80.712 20.688 81.048 20.368C81.384 20.048 81.552 19.648 81.552 19.168C81.552 18.688 81.384 18.28 81.048 17.944C80.712 17.608 80.288 17.44 79.776 17.44H77.616V20.848ZM102.81 29.368C101.514 30.648 99.8344 31.288 97.7704 31.288C95.7064 31.288 94.0184 30.648 92.7064 29.368C91.4104 28.072 90.7624 26.368 90.7624 24.256V13.96H94.5784V24.304C94.5784 25.312 94.8664 26.112 95.4424 26.704C96.0344 27.296 96.8104 27.592 97.7704 27.592C98.7304 27.592 99.4984 27.296 100.074 26.704C100.666 26.112 100.962 25.312 100.962 24.304V13.96H104.778V24.256C104.778 26.368 104.122 28.072 102.81 29.368ZM114.709 31V23.824L108.493 13.96H112.933L116.605 20.104L120.325 13.96H124.765L118.549 23.848V31H114.709ZM135.41 31V13.96H142.13C143.698 13.96 144.97 14.456 145.946 15.448C146.922 16.44 147.41 17.656 147.41 19.096C147.41 21.24 146.298 22.704 144.074 23.488L150.098 31H145.514L139.826 23.968H139.226V31H135.41ZM139.226 20.728H141.674C142.25 20.728 142.714 20.576 143.066 20.272C143.434 19.968 143.618 19.576 143.618 19.096C143.618 18.584 143.434 18.184 143.066 17.896C142.714 17.608 142.25 17.464 141.674 17.464H139.226V20.728ZM153.22 31V13.96H164.02V17.608H157.036V20.656H162.58V24.304H157.036V27.352H164.02V31H153.22ZM184.259 31H180.971L172.667 20.464V31H168.851V13.96H172.139L180.419 24.496V13.96H184.259V31ZM192.851 31V17.608H188.507V13.96H201.083V17.608H196.691V31H192.851Z" fill="white"/>
<path opacity="0.6" d="M73.054 45L75.88 38.61H76.573L79.408 45H78.535L77.707 43.137H74.728L73.918 45H73.054ZM76.213 39.744L75.061 42.381H77.374L76.213 39.744ZM83.465 38.61V39.402H80.693V45H79.856V38.61H83.465ZM84.0202 45V38.61H87.7462V39.402H84.8572V41.337H87.2062V42.129H84.8572V44.208H87.7462V45H84.0202ZM88.58 45V38.61H89.417V41.337H92.918V38.61H93.755V45H92.918V42.12H89.417V45H88.58ZM96.2902 45V39.402H94.3012V38.61H99.0982V39.402H97.1092V45H96.2902ZM102.205 45.108C101.263 45.108 100.474 44.793 99.8385 44.163C99.2085 43.527 98.8935 42.741 98.8935 41.805C98.8935 40.869 99.2085 40.086 99.8385 39.456C100.474 38.82 101.263 38.502 102.205 38.502C102.973 38.502 103.636 38.718 104.194 39.15C104.758 39.582 105.115 40.104 105.265 40.716H104.383C104.233 40.302 103.96 39.963 103.564 39.699C103.174 39.429 102.721 39.294 102.205 39.294C101.497 39.294 100.906 39.537 100.432 40.023C99.9645 40.503 99.7305 41.097 99.7305 41.805C99.7305 42.513 99.9645 43.11 100.432 43.596C100.906 44.076 101.497 44.316 102.205 44.316C102.721 44.316 103.174 44.184 103.564 43.92C103.96 43.65 104.233 43.308 104.383 42.894H105.265C105.115 43.506 104.758 44.028 104.194 44.46C103.636 44.892 102.973 45.108 102.205 45.108ZM107.176 45V39.402H105.187V38.61H109.984V39.402H107.995V45H107.176ZM110.537 45V38.61H112.634C113.21 38.61 113.672 38.775 114.02 39.105C114.368 39.435 114.542 39.834 114.542 40.302C114.542 40.89 114.314 41.325 113.858 41.607C114.596 41.877 114.965 42.387 114.965 43.137C114.965 43.677 114.767 44.124 114.371 44.478C113.981 44.826 113.465 45 112.823 45H110.537ZM111.374 44.244H112.859C113.279 44.244 113.597 44.148 113.813 43.956C114.035 43.758 114.146 43.494 114.146 43.164C114.146 42.84 114.035 42.579 113.813 42.381C113.597 42.177 113.282 42.075 112.868 42.075H111.374V44.244ZM111.374 41.355H112.634C112.97 41.355 113.234 41.265 113.426 41.085C113.624 40.899 113.723 40.659 113.723 40.365C113.723 40.083 113.624 39.846 113.426 39.654C113.228 39.462 112.964 39.366 112.634 39.366H111.374V41.355ZM118.609 44.316C119.311 44.316 119.896 44.073 120.364 43.587C120.838 43.101 121.075 42.507 121.075 41.805C121.075 41.103 120.838 40.509 120.364 40.023C119.896 39.537 119.311 39.294 118.609 39.294C117.913 39.294 117.328 39.537 116.854 40.023C116.386 40.509 116.152 41.103 116.152 41.805C116.152 42.507 116.386 43.101 116.854 43.587C117.328 44.073 117.913 44.316 118.609 44.316ZM118.609 45.108C117.691 45.108 116.911 44.79 116.269 44.154C115.627 43.512 115.306 42.729 115.306 41.805C115.306 40.881 115.627 40.101 116.269 39.465C116.911 38.823 117.691 38.502 118.609 38.502C119.533 38.502 120.313 38.823 120.949 39.465C121.591 40.101 121.912 40.881 121.912 41.805C121.912 42.729 121.591 43.512 120.949 44.154C120.313 44.79 119.533 45.108 118.609 45.108ZM124.445 45V38.61H125.282V41.337H128.783V38.61H129.62V45H128.783V42.12H125.282V45H124.445ZM130.859 45V38.61H134.585V39.402H131.696V41.337H134.045V42.129H131.696V44.208H134.585V45H130.859ZM140.297 46.332V45H135.644V46.332H134.87V44.208H134.987C135.155 44.208 135.293 44.154 135.401 44.046C135.515 43.938 135.611 43.713 135.689 43.371C135.773 43.029 135.815 42.567 135.815 41.985V38.61H140.279V44.208H141.071V46.332H140.297ZM136.652 39.402V42.12C136.652 43.08 136.517 43.776 136.247 44.208H139.442V39.402H136.652ZM141.789 45V38.61H143.886C144.462 38.61 144.924 38.775 145.272 39.105C145.62 39.435 145.794 39.834 145.794 40.302C145.794 40.89 145.566 41.325 145.11 41.607C145.848 41.877 146.217 42.387 146.217 43.137C146.217 43.677 146.019 44.124 145.623 44.478C145.233 44.826 144.717 45 144.075 45H141.789ZM142.626 44.244H144.111C144.531 44.244 144.849 44.148 145.065 43.956C145.287 43.758 145.398 43.494 145.398 43.164C145.398 42.84 145.287 42.579 145.065 42.381C144.849 42.177 144.534 42.075 144.12 42.075H142.626V44.244ZM142.626 41.355H143.886C144.222 41.355 144.486 41.265 144.678 41.085C144.876 40.899 144.975 40.659 144.975 40.365C144.975 40.083 144.876 39.846 144.678 39.654C144.48 39.462 144.216 39.366 143.886 39.366H142.626V41.355ZM147.728 45H146.999V38.61H147.836V43.578L151.724 38.61H152.444V45H151.616V40.023L147.728 45ZM160.526 45L157.619 42.147V45H156.782V42.147L153.875 45H152.768L155.99 41.823L153.029 38.61H154.055L156.782 41.571V38.61H157.619V41.571L160.346 38.61H161.372L158.411 41.823L161.633 45H160.526ZM162.675 45H161.946V38.61H162.783V43.578L166.671 38.61H167.391V45H166.563V40.023L162.675 45ZM168.641 38.61H169.406L171.773 41.796L174.158 38.61H174.914V45H174.086V40.032L171.782 43.128L169.478 40.032V45H168.641V38.61ZM179.025 44.316C179.727 44.316 180.312 44.073 180.78 43.587C181.254 43.101 181.491 42.507 181.491 41.805C181.491 41.103 181.254 40.509 180.78 40.023C180.312 39.537 179.727 39.294 179.025 39.294C178.329 39.294 177.744 39.537 177.27 40.023C176.802 40.509 176.568 41.103 176.568 41.805C176.568 42.507 176.802 43.101 177.27 43.587C177.744 44.073 178.329 44.316 179.025 44.316ZM179.025 45.108C178.107 45.108 177.327 44.79 176.685 44.154C176.043 43.512 175.722 42.729 175.722 41.805C175.722 40.881 176.043 40.101 176.685 39.465C177.327 38.823 178.107 38.502 179.025 38.502C179.949 38.502 180.729 38.823 181.365 39.465C182.007 40.101 182.328 40.881 182.328 41.805C182.328 42.729 182.007 43.512 181.365 44.154C180.729 44.79 179.949 45.108 179.025 45.108ZM186.02 45.108C185.078 45.108 184.289 44.793 183.653 44.163C183.023 43.527 182.708 42.741 182.708 41.805C182.708 40.869 183.023 40.086 183.653 39.456C184.289 38.82 185.078 38.502 186.02 38.502C186.788 38.502 187.451 38.718 188.009 39.15C188.573 39.582 188.93 40.104 189.08 40.716H188.198C188.048 40.302 187.775 39.963 187.379 39.699C186.989 39.429 186.536 39.294 186.02 39.294C185.312 39.294 184.721 39.537 184.247 40.023C183.779 40.503 183.545 41.097 183.545 41.805C183.545 42.513 183.779 43.11 184.247 43.596C184.721 44.076 185.312 44.316 186.02 44.316C186.536 44.316 186.989 44.184 187.379 43.92C187.775 43.65 188.048 43.308 188.198 42.894H189.08C188.93 43.506 188.573 44.028 188.009 44.46C187.451 44.892 186.788 45.108 186.02 45.108ZM190.991 45V39.402H189.002V38.61H193.799V39.402H191.81V45H190.991ZM195.08 45H194.351V38.61H195.188V43.578L199.076 38.61H199.796V45H198.968V40.023L195.08 45Z" fill="white"/>
<g clip-path="url(#clip0_1_322)">
<path d="M62 34.917C61.8143 36.8434 61.2358 38.7135 60.2987 40.4164C58.2162 44.2877 54.4734 47.3309 50.0637 48.3855C40.5353 51.1863 31.593 47.1835 22.3514 46.2093C16.988 45.5554 11.041 46.2495 6.44004 48.9456C3.66335 50.5604 1.37593 52.9094 0 56.1134C1.62057 46.0754 13.3942 41.9873 22.6221 42.8191C33.9462 43.5802 47.0548 50.3473 57.0588 42.1651C59.278 40.308 60.8575 37.7203 62 34.917Z" fill="url(#paint0_linear_1_322)"/>
<path d="M62 34.917C61.9603 35.2908 61.9193 35.6647 61.851 36.0386C61.5748 37.5696 61.0508 39.0476 60.2987 40.4164C58.2162 44.2877 54.4734 47.3309 50.0637 48.3855C40.5353 51.1863 31.593 47.1835 22.3514 46.2093C16.988 45.5554 11.041 46.2495 6.44004 48.9456C3.66335 50.5604 1.37593 52.9094 0 56.1134C0.100929 55.4899 0.246583 54.8743 0.435876 54.2709C3.10329 45.5822 13.9791 42.0446 22.6221 42.8239C33.9462 43.585 47.0548 50.3521 57.0588 42.17C59.278 40.308 60.8575 37.7203 62 34.917Z" fill="url(#paint1_linear_1_322)"/>
<path d="M0 61.9937C0.496725 55.5798 6.61638 50.7355 12.8081 49.5324C19.1674 48.11 25.6559 49.0587 31.6439 50.4883C40.0659 52.4489 49.639 53.3099 56.7285 47.7776C59.0603 45.9259 60.8735 43.523 61.9975 40.7949C61.1394 47.0238 55.8269 52.2115 49.7296 53.976C40.38 57.1032 31.1943 53.5193 22.0484 52.3466C13.583 51.1459 3.21505 53.1601 0 61.9937Z" fill="url(#paint2_linear_1_322)"/>
<path d="M47.3295 17.9122V44.1806C46.5429 44.2626 45.7524 44.3033 44.9614 44.3024C44.8432 44.3046 44.7251 44.3002 44.6075 44.289V19.5404L39.1621 16.8175V13.8145L47.3295 17.9122Z" fill="url(#paint3_linear_1_322)"/>
<path d="M37.3524 6.37986V43.4742C36.4533 43.3146 35.5418 43.1405 34.6291 42.9542V8.00436L27.3744 4.36446V17.3117L24.6523 15.8309V0L37.3524 6.37986Z" fill="url(#paint4_linear_1_322)"/>
<path d="M27.3726 19.6606V41.5256C26.4611 41.3648 25.5496 41.2321 24.6506 41.1383V21.2888L17.3959 17.6452V40.9764C16.4981 41.0701 15.5853 41.2041 14.6738 41.377V13.2808L27.3726 19.6606Z" fill="url(#paint5_linear_1_322)"/>
</g>
<defs>
<linearGradient id="paint0_linear_1_322" x1="45.4454" y1="44.9855" x2="11.2527" y2="46.2897" gradientUnits="userSpaceOnUse">
<stop offset="0.11" stop-color="#88BDED"/>
<stop offset="0.34" stop-color="#82B9E8"/>
<stop offset="0.64" stop-color="#72AEDB"/>
<stop offset="0.97" stop-color="#589CC5"/>
<stop offset="1" stop-color="#559AC3"/>
</linearGradient>
<linearGradient id="paint1_linear_1_322" x1="41.3863" y1="44.4887" x2="4.96855" y2="48.2363" gradientUnits="userSpaceOnUse">
<stop stop-color="#3099E5"/>
<stop offset="1" stop-color="#559AC3"/>
</linearGradient>
<linearGradient id="paint2_linear_1_322" x1="41.3847" y1="50.3678" x2="4.96823" y2="54.1146" gradientUnits="userSpaceOnUse">
<stop stop-color="#3099E5"/>
<stop offset="1" stop-color="#559AC3"/>
</linearGradient>
<linearGradient id="paint3_linear_1_322" x1="52.0074" y1="23.4092" x2="41.3499" y2="30.4777" gradientUnits="userSpaceOnUse">
<stop offset="0.11" stop-color="#EDC198"/>
<stop offset="0.33" stop-color="#E9BC92"/>
<stop offset="0.62" stop-color="#DCAC82"/>
<stop offset="0.94" stop-color="#C89368"/>
<stop offset="1" stop-color="#C38D62"/>
</linearGradient>
<linearGradient id="paint4_linear_1_322" x1="41.4106" y1="15.3694" x2="30.9117" y2="22.0481" gradientUnits="userSpaceOnUse">
<stop offset="0.11" stop-color="#EDC198"/>
<stop offset="0.33" stop-color="#E9BC92"/>
<stop offset="0.62" stop-color="#DCAC82"/>
<stop offset="0.94" stop-color="#C89368"/>
<stop offset="1" stop-color="#C38D62"/>
</linearGradient>
<linearGradient id="paint5_linear_1_322" x1="28.4083" y1="22.1424" x2="18.5646" y2="29.4324" gradientUnits="userSpaceOnUse">
<stop offset="0.11" stop-color="#EDC198"/>
<stop offset="0.33" stop-color="#E9BC92"/>
<stop offset="0.62" stop-color="#DCAC82"/>
<stop offset="0.94" stop-color="#C89368"/>
<stop offset="1" stop-color="#C38D62"/>
</linearGradient>
<clipPath id="clip0_1_322">
<rect width="62" height="62" fill="white"/>
</clipPath>
</defs>
</svg>
