<svg width="331" height="94" viewBox="0 0 331 94" fill="none" xmlns="http://www.w3.org/2000/svg">
<path d="M20.572 26.868C16.278 35.114 12.117 43.645 8.089 52.461C7.861 53.031 7.557 53.43 7.177 53.658C6.797 53.848 6.037 54.095 4.897 54.399C3.985 54.665 3.206 54.95 2.56 55.254C1.952 55.558 1.515 55.786 1.249 55.938C1.021 56.09 0.812 56.166 0.622 56.166C0.356 56.166 0.223 56.071 0.223 55.881C0.223 55.805 0.299 55.672 0.451 55.482C0.603 55.33 0.85 55.026 1.192 54.57C1.534 54.114 1.895 53.601 2.275 53.031C3.909 50.523 5.524 47.787 7.12 44.823C8.754 41.859 10.502 38.553 12.364 34.905C14.264 31.219 15.67 28.521 16.582 26.811C17 26.089 17.855 24.398 19.147 21.738C20.477 19.04 21.332 17.368 21.712 16.722C24.182 12.542 27.279 9.293 31.003 6.975C34.727 4.657 38.204 3.498 41.434 3.498C43.714 3.498 45.633 4.258 47.191 5.778C48.749 7.298 49.528 9.312 49.528 11.82C49.528 17.786 44.436 22.707 34.252 26.583L34.309 26.697C35.183 26.659 35.791 26.64 36.133 26.64C38.717 26.64 40.978 27.609 42.916 29.547C44.892 31.447 45.88 33.594 45.88 35.988C45.88 41.004 43.505 45.412 38.755 49.212C34.043 52.974 28.495 54.855 22.111 54.855C18.881 54.855 16.183 54.437 14.017 53.601C11.851 52.765 10.768 51.91 10.768 51.036C10.768 50.846 11.053 50.371 11.623 49.611C11.737 49.459 11.889 49.212 12.079 48.87C12.307 48.528 12.497 48.243 12.649 48.015C12.801 47.787 12.915 47.673 12.991 47.673C13.105 47.673 13.162 47.749 13.162 47.901C13.162 49.117 14.074 50.352 15.898 51.606C17.76 52.86 19.793 53.487 21.997 53.487C26.823 53.487 31.174 51.53 35.05 47.616C38.926 43.664 40.864 39.332 40.864 34.62C40.864 32.378 40.142 30.668 38.698 29.49C37.292 28.312 35.734 27.723 34.024 27.723C32.77 27.723 31.725 27.97 30.889 28.464C30.091 28.958 29.388 29.205 28.78 29.205C28.59 29.205 28.267 29.034 27.811 28.692C27.393 28.35 27.184 28.084 27.184 27.894C27.184 27.666 27.336 27.495 27.64 27.381C27.944 27.267 28.381 27.172 28.951 27.096C29.559 27.02 29.977 26.944 30.205 26.868C33.739 25.804 37.007 24.018 40.009 21.51C43.049 18.964 44.569 16.133 44.569 13.017C44.569 10.851 43.923 9.122 42.631 7.83C41.339 6.538 39.724 5.892 37.786 5.892C35.924 5.892 34.328 6.329 32.998 7.203C31.668 8.039 30.186 9.73 28.552 12.276C27.298 14.252 24.638 19.116 20.572 26.868ZM81.9913 50.067C83.3593 51.283 84.8033 52.157 86.3233 52.689C87.8433 53.221 89.8763 53.487 92.4223 53.487C95.0063 53.487 97.6093 52.841 100.231 51.549C102.853 50.257 105.114 48.661 107.014 46.761C108.914 44.861 110.453 42.828 111.631 40.662C112.847 38.458 113.455 36.482 113.455 34.734C113.455 29.49 111.251 26.868 106.843 26.868C103.233 26.868 99.9843 27.932 97.0963 30.06C94.2083 32.188 91.3203 35.114 88.4323 38.838C87.6343 39.826 86.8743 40.966 86.1523 42.258C85.4303 43.512 84.6513 44.975 83.8153 46.647C82.9793 48.281 82.3713 49.421 81.9913 50.067ZM80.5093 53.373C79.4833 53.373 78.1913 53.677 76.6333 54.285C75.0753 54.931 74.1633 55.254 73.8973 55.254C73.6313 55.254 73.4983 55.121 73.4983 54.855C73.4983 54.741 73.6123 54.551 73.8403 54.285C74.0683 54.057 74.4293 53.639 74.9233 53.031C75.4173 52.385 75.9113 51.663 76.4053 50.865C77.6973 48.699 79.7683 45.032 82.6183 39.864C92.0043 22.726 97.9133 11.364 100.345 5.778C99.6233 5.74 99.0723 5.721 98.6923 5.721C96.9063 5.721 95.0633 6.044 93.1633 6.69C91.3013 7.336 89.7623 8.248 88.5463 9.426C87.7863 10.186 87.3683 10.566 87.2923 10.566C87.0643 10.566 86.9503 10.452 86.9503 10.224C86.9503 9.996 87.3683 9.464 88.2043 8.628C91.5483 5.208 96.0323 3.498 101.656 3.498C103.556 3.498 106.254 3.631 109.75 3.897C113.284 4.125 116.438 4.239 119.212 4.239C123.278 4.239 125.463 3.441 125.767 1.845C125.881 1.161 126.071 0.818998 126.337 0.818998C126.641 0.818998 126.793 0.989998 126.793 1.332C126.793 2.586 125.634 3.84 123.316 5.094C121.036 6.348 118.566 6.975 115.906 6.975C112.03 6.975 108.553 6.747 105.475 6.291C103.081 10.319 98.5023 18.717 91.7383 31.485C97.3243 27.267 102.891 25.158 108.439 25.158C111.441 25.158 113.854 26.108 115.678 28.008C117.54 29.87 118.471 32.359 118.471 35.475C118.471 38.819 117.065 42.011 114.253 45.051C111.441 48.091 108.002 50.466 103.936 52.176C99.8703 53.886 95.8993 54.741 92.0233 54.741C89.8193 54.741 87.5773 54.513 85.2973 54.057C83.0173 53.601 81.4213 53.373 80.5093 53.373ZM155.398 48.414C150.04 52.594 145.632 54.684 142.174 54.684C139.21 54.684 137.728 53.126 137.728 50.01C133.13 52.86 129.577 54.285 127.069 54.285C125.397 54.285 124.143 53.715 123.307 52.575C122.471 51.397 122.053 49.877 122.053 48.015C122.053 45.241 123.041 42.315 125.017 39.237C126.993 36.121 129.501 33.518 132.541 31.428C135.619 29.338 138.583 28.293 141.433 28.293C143.067 28.293 144.568 28.768 145.936 29.718C147.342 30.63 148.292 31.96 148.786 33.708C149.774 33.708 150.268 34.126 150.268 34.962C150.268 35.456 150.211 35.931 150.097 36.387C150.021 36.843 149.85 37.318 149.584 37.812C149.356 38.268 149.147 38.667 148.957 39.009C148.805 39.313 148.52 39.712 148.102 40.206C147.684 40.7 147.38 41.042 147.19 41.232C147.038 41.422 146.696 41.783 146.164 42.315C145.67 42.847 145.366 43.17 145.252 43.284C145.024 43.512 144.606 43.911 143.998 44.481C143.39 45.051 142.934 45.488 142.63 45.792C142.174 46.97 141.946 48.224 141.946 49.554C141.946 51.53 143.01 52.518 145.138 52.518C147.532 52.518 150.8 50.96 154.942 47.844C157.298 46.02 159.882 43.36 162.694 39.864C162.846 39.636 162.998 39.522 163.15 39.522C163.302 39.522 163.378 39.598 163.378 39.75C163.378 39.826 163.34 39.94 163.264 40.092C160.68 43.588 158.058 46.362 155.398 48.414ZM141.262 29.661C138.868 29.661 136.512 30.668 134.194 32.682C131.914 34.658 130.109 37.071 128.779 39.921C127.449 42.733 126.784 45.393 126.784 47.901C126.784 50.865 127.829 52.347 129.919 52.347C132.275 52.347 134.916 51.188 137.842 48.87C138.868 45.222 140.312 42.144 142.174 39.636C144.454 36.406 146.354 34.506 147.874 33.936C147.38 32.644 146.525 31.618 145.309 30.858C144.093 30.06 142.744 29.661 141.262 29.661ZM143.029 44.538C146.867 40.7 148.786 38.078 148.786 36.672C148.786 36.368 148.634 36.216 148.33 36.216C147.456 36.216 145.689 38.99 143.029 44.538ZM170.521 30.573C170.521 32.017 169.97 33.765 168.868 35.817C168.906 35.779 169.495 35.247 170.635 34.221C171.775 33.157 172.706 32.321 173.428 31.713C174.188 31.105 175.119 30.478 176.221 29.832C177.323 29.186 178.254 28.863 179.014 28.863C179.66 28.863 180.173 29.11 180.553 29.604C180.933 30.098 181.123 30.744 181.123 31.542C181.123 32.188 181.009 32.929 180.781 33.765C180.591 34.563 180.401 35.209 180.211 35.703L179.926 36.444C180.154 36.216 180.439 35.931 180.781 35.589C181.161 35.209 181.883 34.563 182.947 33.651C184.049 32.739 185.113 31.941 186.139 31.257C187.165 30.535 188.324 29.889 189.616 29.319C190.946 28.749 192.124 28.464 193.15 28.464C194.1 28.464 194.898 28.73 195.544 29.262C196.19 29.794 196.513 30.478 196.513 31.314C196.513 32.302 195.848 33.841 194.518 35.931C193.188 37.983 191.725 40.13 190.129 42.372C188.571 44.576 187.127 47.407 185.797 50.865C184.467 54.285 183.802 57.686 183.802 61.068C183.802 63.956 184.581 66.502 186.139 68.706C187.697 70.948 189.958 72.069 192.922 72.069C195.848 72.069 199.059 70.815 202.555 68.307C206.051 65.799 208.768 63.12 210.706 60.27C210.858 60.042 211.01 59.928 211.162 59.928C211.314 59.928 211.39 60.004 211.39 60.156C211.39 60.232 211.352 60.346 211.276 60.498C208.616 64.108 205.386 67.205 201.586 69.789C197.824 72.411 194.252 73.722 190.87 73.722C187.716 73.722 185.094 72.601 183.004 70.359C180.952 68.117 179.926 65.248 179.926 61.752C179.926 58.674 180.496 55.482 181.636 52.176C182.776 48.87 184.03 46.115 185.398 43.911C186.766 41.669 188.02 39.522 189.16 37.47C190.3 35.38 190.87 33.86 190.87 32.91C190.87 31.922 190.414 31.428 189.502 31.428C186.994 31.428 183.384 33.879 178.672 38.781C178.634 38.857 178.482 39.028 178.216 39.294C177.988 39.522 177.836 39.674 177.76 39.75C177.684 39.826 177.532 39.978 177.304 40.206C177.076 40.396 176.905 40.548 176.791 40.662C176.677 40.738 176.506 40.871 176.278 41.061C176.088 41.213 175.898 41.327 175.708 41.403C175.556 41.441 175.366 41.517 175.138 41.631C174.948 41.707 174.739 41.764 174.511 41.802C174.321 41.84 174.112 41.859 173.884 41.859C173.77 41.859 173.713 41.802 173.713 41.688C173.713 41.46 173.865 41.251 174.169 41.061C174.473 40.833 174.663 40.605 174.739 40.377C176.297 36.957 177.076 34.639 177.076 33.423C177.076 32.359 176.639 31.827 175.765 31.827C174.777 31.827 173.561 32.454 172.117 33.708C170.711 34.924 169.362 36.406 168.07 38.154C166.208 40.586 163.358 45.697 159.52 53.487C159.406 53.753 159.159 53.924 158.779 54C158.437 54.038 158 54.057 157.468 54.057C156.936 54.057 156.499 54.114 156.157 54.228L154.276 54.912C154.086 54.912 153.991 54.817 153.991 54.627C153.991 54.589 154.01 54.532 154.048 54.456C154.086 54.418 154.143 54.342 154.219 54.228C154.333 54.152 154.428 54.057 154.504 53.943C156.176 51.511 158.912 46.818 162.712 39.864C164.992 35.798 166.132 32.91 166.132 31.2C166.132 29.984 165.752 29.376 164.992 29.376C164.118 29.376 162.712 30.022 160.774 31.314C160.432 31.542 160.242 31.656 160.204 31.656C160.052 31.656 159.976 31.58 159.976 31.428C159.976 31.276 160.09 31.124 160.318 30.972C163.168 28.844 165.448 27.78 167.158 27.78C168.26 27.78 169.096 28.046 169.666 28.578C170.236 29.072 170.521 29.737 170.521 30.573ZM212.872 58.845C211.542 59.301 209.224 60.042 205.918 61.068C202.612 62.094 200.161 62.892 198.565 63.462C194.385 64.944 190.604 66.692 187.222 68.706C183.802 70.72 180.933 73.133 178.615 75.945C176.297 78.757 175.138 81.626 175.138 84.552C175.138 89.188 177.399 91.506 181.921 91.506C185.721 91.506 189.635 89.967 193.663 86.889C197.653 83.811 201.32 79.289 204.664 73.323C207.704 68.003 210.44 63.177 212.872 58.845ZM234.076 48.414C230.162 51.72 224.5 54.703 217.09 57.363L207.343 73.038C203.505 79.232 199.116 84.191 194.176 87.915C189.198 91.677 184.296 93.558 179.47 93.558C176.62 93.558 174.473 92.703 173.029 90.993C171.585 89.283 170.863 87.383 170.863 85.293C170.863 83.545 171.205 81.835 171.889 80.163C172.573 78.529 173.447 77.066 174.511 75.774C175.537 74.52 176.867 73.266 178.501 72.012C180.097 70.796 181.655 69.751 183.175 68.877C184.657 68.003 186.405 67.11 188.419 66.198C190.395 65.324 192.086 64.621 193.492 64.089C194.898 63.557 196.494 62.987 198.28 62.379C200.484 61.619 203.467 60.65 207.229 59.472C210.991 58.294 213.119 57.629 213.613 57.477L218.23 49.212C213.822 52.746 209.357 54.513 204.835 54.513C203.695 54.513 202.65 54.19 201.7 53.544C200.788 52.86 200.332 51.948 200.332 50.808C200.332 49.288 200.788 47.578 201.7 45.678C202.65 43.778 203.676 42.068 204.778 40.548C205.88 39.028 206.887 37.413 207.799 35.703C208.749 33.955 209.224 32.492 209.224 31.314C209.224 30.326 208.692 29.832 207.628 29.832C206.374 29.832 205.006 30.326 203.524 31.314C203.182 31.542 202.992 31.656 202.954 31.656C202.802 31.656 202.726 31.58 202.726 31.428C202.726 31.276 202.84 31.124 203.068 30.972C205.5 29.3 207.59 28.464 209.338 28.464C210.554 28.464 211.523 28.768 212.245 29.376C212.967 29.984 213.328 30.896 213.328 32.112C213.328 33.328 211.884 36.197 208.996 40.719C206.146 45.241 204.721 48.243 204.721 49.725C204.721 51.663 205.671 52.632 207.571 52.632C209.129 52.632 211.067 52.1 213.385 51.036C215.703 49.972 217.622 48.794 219.142 47.502L225.298 35.646C225.602 35.076 225.925 34.43 226.267 33.708C226.647 32.986 226.913 32.454 227.065 32.112C227.255 31.77 227.464 31.409 227.692 31.029C227.958 30.649 228.224 30.383 228.49 30.231C228.756 30.079 229.06 29.984 229.402 29.946C230.922 29.794 231.986 29.718 232.594 29.718C232.822 29.718 232.936 29.832 232.936 30.06C232.936 30.212 232.651 30.782 232.081 31.77C231.511 32.758 230.751 34.031 229.801 35.589C228.889 37.109 228.224 38.23 227.806 38.952C223.702 46.248 220.415 51.948 217.945 56.052C223.873 53.962 229.098 51.226 233.62 47.844C235.976 46.02 238.56 43.36 241.372 39.864C241.524 39.636 241.676 39.522 241.828 39.522C241.98 39.522 242.056 39.598 242.056 39.75C242.056 39.826 242.018 39.94 241.942 40.092C239.358 43.588 236.736 46.362 234.076 48.414ZM271.632 48.471C271.632 51.055 272.772 52.347 275.052 52.347C278.13 52.347 281.607 50.846 285.483 47.844C287.839 46.02 290.423 43.36 293.235 39.864C293.387 39.636 293.539 39.522 293.691 39.522C293.843 39.522 293.919 39.598 293.919 39.75C293.919 39.826 293.881 39.94 293.805 40.092C291.221 43.588 288.599 46.362 285.939 48.414C280.923 52.328 276.249 54.285 271.917 54.285C270.359 54.285 269.124 53.848 268.212 52.974C267.3 52.1 266.844 50.979 266.844 49.611C266.844 47.597 267.965 44.443 270.207 40.149C269.143 41.403 267.148 43.626 264.222 46.818C259.814 51.606 256.166 54 253.278 54C250.96 54 249.801 52.784 249.801 50.352C249.801 47.046 251.112 42.866 253.734 37.812C253.582 38.04 253.031 38.838 252.081 40.206C251.131 41.536 250.2 42.79 249.288 43.968C248.414 45.108 247.521 46.153 246.609 47.103C244.101 49.763 241.859 51.625 239.883 52.689C237.945 53.715 236.425 54.228 235.323 54.228C232.815 54.228 231.561 53.278 231.561 51.378C231.561 50.77 231.656 50.257 231.846 49.839C232.036 49.383 232.226 49.06 232.416 48.87C232.606 48.68 232.948 48.414 233.442 48.072C233.936 47.73 234.259 47.483 234.411 47.331C234.867 46.951 235.342 46.533 235.836 46.077C236.33 45.621 236.672 45.317 236.862 45.165C237.052 44.975 237.204 44.88 237.318 44.88C237.432 44.88 237.489 44.937 237.489 45.051C237.489 45.203 237.337 45.431 237.033 45.735C235.665 46.951 234.981 48.224 234.981 49.554C234.981 50.314 235.209 50.922 235.665 51.378C236.121 51.834 236.71 52.062 237.432 52.062C238.42 52.062 239.788 51.454 241.536 50.238C243.322 49.022 245.184 47.388 247.122 45.336C248.072 44.348 248.965 43.303 249.801 42.201C250.675 41.061 251.302 40.206 251.682 39.636C252.1 39.028 252.689 38.116 253.449 36.9C254.247 35.646 254.703 34.943 254.817 34.791C255.121 34.335 255.558 33.499 256.128 32.283C256.736 31.029 257.287 30.193 257.781 29.775C258.237 29.357 259.225 28.882 260.745 28.35C260.973 28.274 261.201 28.16 261.429 28.008C261.695 27.856 261.866 27.78 261.942 27.78C262.094 27.78 262.17 27.894 262.17 28.122C262.17 28.274 262.018 28.635 261.714 29.205C261.41 29.737 260.973 30.497 260.403 31.485C259.833 32.435 259.339 33.347 258.921 34.221C257.629 36.843 256.584 39.56 255.786 42.372C254.988 45.146 254.589 47.464 254.589 49.326C254.589 50.694 255.159 51.378 256.299 51.378C258.123 51.378 260.593 49.706 263.709 46.362C267.205 42.676 270.074 39.104 272.316 35.646C272.62 35.19 273.019 34.506 273.513 33.594C274.045 32.682 274.52 31.903 274.938 31.257C275.356 30.573 275.736 30.06 276.078 29.718C276.458 29.338 277.256 28.92 278.472 28.464C279.498 28.046 280.315 27.837 280.923 27.837C281.151 27.837 281.265 28.008 281.265 28.35C281.265 28.502 281.018 28.844 280.524 29.376C280.068 29.87 279.479 30.573 278.757 31.485C278.035 32.397 277.446 33.309 276.99 34.221C275.812 36.501 274.919 38.287 274.311 39.579C273.703 40.871 273.095 42.391 272.487 44.139C271.917 45.887 271.632 47.331 271.632 48.471ZM322.998 48.414C320.87 50.2 318.476 51.682 315.816 52.86C313.194 54.038 311.009 54.627 309.261 54.627C308.159 54.627 307.285 54.323 306.639 53.715C305.993 53.107 305.67 52.347 305.67 51.435C305.67 50.257 305.936 48.984 306.468 47.616C306.43 47.654 306.183 47.882 305.727 48.3C305.309 48.718 305.005 49.022 304.815 49.212C304.663 49.364 304.321 49.668 303.789 50.124C303.295 50.542 302.896 50.865 302.592 51.093C302.288 51.321 301.851 51.644 301.281 52.062C300.749 52.442 300.274 52.746 299.856 52.974C299.438 53.202 298.925 53.468 298.317 53.772C297.747 54.038 297.196 54.247 296.664 54.399C296.17 54.551 295.619 54.684 295.011 54.798C294.403 54.912 293.814 54.969 293.244 54.969C291.8 54.969 290.508 54.57 289.368 53.772C288.228 52.936 287.658 51.644 287.658 49.896C287.658 48.338 288.399 46.286 289.881 43.74C291.401 41.156 292.902 38.686 294.384 36.33C295.904 33.936 296.664 32.226 296.664 31.2C296.664 29.984 296.284 29.376 295.524 29.376C295.258 29.376 294.992 29.414 294.726 29.49C294.46 29.528 294.232 29.585 294.042 29.661C293.852 29.737 293.605 29.87 293.301 30.06C292.997 30.212 292.788 30.326 292.674 30.402C292.56 30.478 292.332 30.63 291.99 30.858C291.648 31.086 291.42 31.238 291.306 31.314C290.964 31.542 290.774 31.656 290.736 31.656C290.584 31.656 290.508 31.58 290.508 31.428C290.508 31.276 290.622 31.124 290.85 30.972C293.928 28.844 296.208 27.78 297.69 27.78C299.894 27.78 300.996 28.844 300.996 30.972C300.996 31.922 300.255 33.613 298.773 36.045C297.329 38.477 295.866 40.947 294.384 43.455C292.94 45.963 292.218 47.844 292.218 49.098C292.218 51.378 293.434 52.518 295.866 52.518C298.792 52.518 302.63 50.219 307.38 45.621C309.736 40.643 312.149 36.102 314.619 31.998C315.949 29.756 316.899 28.635 317.469 28.635C317.925 28.635 318.476 28.806 319.122 29.148C319.806 29.49 320.148 29.927 320.148 30.459C320.148 30.953 319.749 31.751 318.951 32.853C318.153 33.917 317.146 35.228 315.93 36.786C314.752 38.306 313.859 39.617 313.251 40.719C313.175 40.871 312.966 41.251 312.624 41.859C312.282 42.429 312.035 42.847 311.883 43.113C311.769 43.341 311.56 43.74 311.256 44.31C310.99 44.842 310.781 45.298 310.629 45.678C310.515 46.058 310.382 46.495 310.23 46.989C310.078 47.483 309.964 47.977 309.888 48.471C309.812 48.927 309.774 49.383 309.774 49.839C309.774 50.637 310.002 51.302 310.458 51.834C310.952 52.328 311.636 52.575 312.51 52.575C313.726 52.575 315.303 52.119 317.241 51.207C319.179 50.295 320.946 49.174 322.542 47.844C324.898 46.02 327.482 43.36 330.294 39.864C330.446 39.636 330.598 39.522 330.75 39.522C330.902 39.522 330.978 39.598 330.978 39.75C330.978 39.826 330.94 39.94 330.864 40.092C328.28 43.588 325.658 46.362 322.998 48.414Z" fill="#32A9FF"/>
</svg>
