<svg width="41" height="44" viewBox="0 0 41 44" fill="none" xmlns="http://www.w3.org/2000/svg">
<path d="M11.6364 32.678H18.7273M36.4545 36.2373C38.4127 36.2373 40 34.6437 40 32.678V11.322C40 9.35631 38.4127 7.76271 36.4545 7.76271M8.09091 43H22.2727C26.1889 43 29.3636 39.8129 29.3636 35.8814V8.11864C29.3636 4.18711 26.1889 1 22.2727 1H8.09091C4.17469 1 1 4.18711 1 8.11864V35.8814C1 39.8129 4.17469 43 8.09091 43ZM15.1818 25.5593C11.2711 25.5593 8.09091 22.3667 8.09091 18.4407C8.09091 14.5147 11.2711 11.322 15.1818 11.322C19.0925 11.322 22.2727 14.5147 22.2727 18.4407C22.2727 22.3667 19.0925 25.5593 15.1818 25.5593Z" stroke="#32A9FF" stroke-miterlimit="10" stroke-linecap="round" stroke-linejoin="round"/>
</svg>
