<svg width="39" height="39" viewBox="0 0 39 39" fill="none" xmlns="http://www.w3.org/2000/svg">
<path d="M13.1125 11.5714H15.3976M13.1125 16.8571H15.3976M23.6024 16.8571H25.8875M28.8474 16.8571H31.1325M23.6024 22.1429H25.8875M28.8474 22.1429H31.1325M23.6024 27.4286H25.8875M28.8474 27.4286H31.1325M23.6024 32.7143H25.8875M28.8474 32.7143H31.1325M7.86746 16.8571H10.1526M13.1125 22.1429H15.3976M7.86746 22.1429H10.1526M13.1125 27.4286H15.3976M7.86746 27.4286H10.1526M3.76508 38V8.9286L19.5 6.28571V38L19.5 11.5714H35.2349V38M6.38754 8.48812V1H16.8775V6.72617M9.01004 38V32.7143H14.255V38M0 38H39" stroke="#32A9FF" stroke-miterlimit="10"/>
</svg>
