<svg width="41" height="41" viewBox="0 0 41 41" fill="none" xmlns="http://www.w3.org/2000/svg">
<path d="M13.1875 5.85477V1H40V35.1452H35.125M31.4687 40H4.65625C2.63694 40 1 38.3698 1 36.3589V35.1452H27.8125V36.3589C27.8125 38.3698 29.4494 40 31.4687 40ZM31.4687 40C33.4881 40 35.125 38.3698 35.125 36.3589V5.85477H8.3125V35.1452M30.25 17.4658C30.25 15.79 28.8859 14.4315 27.2031 14.4315M27.2031 14.4315C25.5204 14.4315 24.1562 15.79 24.1562 17.4658C24.1562 19.1416 25.5204 20.5 27.2031 20.5C28.8859 20.5 30.25 21.8584 30.25 23.5342C30.25 25.21 28.8859 26.5685 27.2031 26.5685M27.2031 14.4315V10.7905M27.2031 26.5685C25.5204 26.5685 24.1562 25.21 24.1562 23.5342M27.2031 26.5685V30.2095M11.9687 20.5H20.5M11.9687 15.6452H20.5M11.9687 25.3548H20.5" stroke="#32A9FF" stroke-miterlimit="10"/>
</svg>
