<svg width="41" height="41" viewBox="0 0 41 41" fill="none" xmlns="http://www.w3.org/2000/svg">
<path d="M29.6 29.377V40H1V1H21.8M21.8 1V8.8H29.6M21.8 1L29.6 8.8M29.6 8.8V22.023M6.20003 19.2H24.4M14 32.2C14 32.2 15.3001 30.9 16.6 30.9C19.2 30.9 16.6 33.4999 19.2 33.4999C21.7999 33.4999 23.1 32.2777 23.1 32.2777M6.20003 14H11.4M6.20003 24.4H19.2M36.321 15.3C36.321 15.3 29.5546 22.0717 25.7 25.9232C24.036 27.5878 23.1001 29.8456 23.1001 32.1998C23.1001 32.1999 23.1001 32.1999 23.1001 32.1999C25.4531 32.1999 27.715 31.2647 29.3791 29.6C33.2269 25.7487 40 18.977 40 18.977V18.9764C40 18.0013 39.61 17.0662 38.9209 16.3768C38.2321 15.6873 37.296 15.3 36.321 15.3Z" stroke="#32A9FF" stroke-miterlimit="10" stroke-linecap="round" stroke-linejoin="round"/>
</svg>
