<svg width="41" height="41" viewBox="0 0 41 41" fill="none" xmlns="http://www.w3.org/2000/svg">
<path d="M20.5 0V6.19718M15.6953 11.0262V6.19718H25.3047V16.66M18.0977 40H8.48828M18.0977 40V11.0262H8.48828V40M18.0977 40H41M8.48828 40H3.68359M22.9023 40V15.8551L30.1094 18.2696V28.5736M27.707 40V32.7565C27.707 30.0896 29.8582 27.9276 32.5117 27.9276C35.1653 27.9276 37.3164 30.0896 37.3164 32.7565V40M13.293 19.4769V21.8914M13.293 14.6479V17.0624M32.5117 31.5493V33.9638M13.293 24.3058V26.7203M13.293 29.1348V31.5493M13.293 33.9638V40M8.48828 23.0986L3.68359 25.5131V40M3.68359 40H0M32.5117 36.3783V40" stroke="white" stroke-miterlimit="10"/>
</svg>
