<svg width="38" height="38" viewBox="0 0 38 38" fill="none" xmlns="http://www.w3.org/2000/svg">
<path d="M6.97511 8.61826H9.96266M8.46888 8.61826V1M10.7095 18.9086C11.7488 19.132 12.8374 19.1354 13.9005 18.8986L22.2877 33.4258L24.9751 33.599L25.9686 27.8509L23.5545 26.6573L23.7279 23.9699L21.3139 22.7764L17.7815 16.6579C19.9295 14.3186 20.4183 10.7687 18.7462 7.87263C17.0238 4.88926 13.5541 3.54434 10.3761 4.3831M18.6349 18.1362C19.1436 17.8542 19.6223 17.5113 20.0589 17.1105L34.5861 25.4978L37 24.3042L34.9862 18.8293L32.2989 19.0027L31.1053 16.5887L28.418 16.762L22.2995 13.2296C22.9902 10.1295 21.6385 6.81087 18.7424 5.13881C17.1372 4.212 15.331 3.94924 13.6414 4.2645M15.9378 11.6058C15.9378 7.48082 12.5938 4.13693 8.46888 4.13693C4.34397 4.13693 1 7.48082 1 11.6058C1 14.9499 3.19824 17.7798 6.22822 18.7317V35.5062L8.46888 37L12.2033 32.5187L10.7095 30.278L12.2033 28.0373L10.7095 25.7967V18.7317C13.7395 17.7798 15.9378 14.9499 15.9378 11.6058Z" stroke="white" stroke-miterlimit="10" stroke-linecap="round" stroke-linejoin="round"/>
</svg>
